<svg xmlns="http://www.w3.org/2000/svg" viewBox="0 0 32 32">
  <defs>
    <linearGradient id="bg" x1="0%" y1="0%" x2="100%" y2="100%">
      <stop offset="0%" style="stop-color:#0a0a1a"/>
      <stop offset="100%" style="stop-color:#1a1a3a"/>
    </linearGradient>
    <linearGradient id="rocket" x1="0%" y1="0%" x2="100%" y2="100%">
      <stop offset="0%" style="stop-color:#00d4ff"/>
      <stop offset="100%" style="stop-color:#00ff88"/>
    </linearGradient>
  </defs>
  <!-- Background -->
  <rect width="32" height="32" rx="6" fill="url(#bg)"/>
  <!-- Stars -->
  <circle cx="5" cy="5" r="1" fill="#fff" opacity="0.6"/>
  <circle cx="27" cy="8" r="0.8" fill="#fff" opacity="0.5"/>
  <circle cx="8" cy="26" r="0.6" fill="#fff" opacity="0.4"/>
  <!-- Rocket body -->
  <path d="M16 4 L20 14 L20 22 L16 26 L12 22 L12 14 Z" fill="url(#rocket)"/>
  <!-- Rocket window -->
  <circle cx="16" cy="12" r="3" fill="#0a0a1a"/>
  <circle cx="16" cy="12" r="2" fill="#00d4ff" opacity="0.5"/>
  <!-- Rocket fins -->
  <path d="M12 18 L8 24 L12 22 Z" fill="#b44aff"/>
  <path d="M20 18 L24 24 L20 22 Z" fill="#b44aff"/>
  <!-- Rocket flame -->
  <path d="M14 26 L16 30 L18 26 Z" fill="#ff4757"/>
  <path d="M15 26 L16 28 L17 26 Z" fill="#ffa502"/>
  <!-- Math symbol + -->
  <text x="25" y="12" font-size="8" font-weight="bold" fill="#00ff88">+</text>
</svg>
